<svg width="78" height="101" viewBox="0 0 78 101" fill="none" xmlns="http://www.w3.org/2000/svg">
<rect x="7.29413" y="4" width="66.7059" height="92.2353" rx="33.3529" fill="#94BBFF"/>
<path d="M4 39.2946C4 39.2946 17.1824 37.3484 21.0882 42.5383C24.9941 47.7281 23.5294 53.4662 23.5294 53.4662C30.8529 53.4662 38.1765 53.9787 38.1765 65.2439C38.1765 73.353 28.4118 78.2185 22.3088 72.9281C22.3088 79.8404 16.6765 78.9412 9.35294 78.9412L4 39.2946ZM72.3529 29.5636C72.3529 29.5636 63.8088 23.0763 60.1471 26.32C56.4853 29.5636 57.7059 36.051 57.7059 36.051C54.0441 32.8073 47.9412 36.051 47.9412 44.1601C47.9412 52.2693 54.0441 55.5129 60.1471 52.2693C62.5882 62.0002 68.6912 62.0002 72.3529 58.7566" fill="#94BBFF"/>
<path d="M72.3529 29.5636C72.3529 29.5636 63.8088 23.0763 60.1471 26.32C56.4853 29.5636 57.7059 36.051 57.7059 36.051C54.0441 32.8073 47.9412 36.051 47.9412 44.1601C47.9412 52.2693 54.0441 55.5129 60.1471 52.2693C62.5882 62.0002 68.6912 62.0002 72.3529 58.7566M4 39.2946C4 39.2946 17.1824 37.3484 21.0882 42.5383C24.9941 47.7281 23.5294 53.4662 23.5294 53.4662C30.8529 53.4662 38.1765 53.9787 38.1765 65.2439C38.1765 73.353 28.4118 78.2185 22.3088 72.9281C22.3088 79.8404 16.6765 78.9412 9.35294 78.9412L4 39.2946Z" stroke="white" stroke-width="8" stroke-linecap="round" stroke-linejoin="round"/>
<rect x="7.29413" y="4" width="66.7059" height="92.2353" rx="33.3529" stroke="#333333" stroke-width="8"/>
</svg>
