<svg width="116" height="72" viewBox="0 0 116 72" fill="none" xmlns="http://www.w3.org/2000/svg">
<path d="M15.452 4.044C20.384 4.044 23.732 5.88 23.732 8.724C23.732 11.604 20.384 13.44 15.452 13.44C10.556 13.44 7.208 11.604 7.208 8.724C7.208 5.88 10.556 4.044 15.452 4.044ZM15.452 15.816C22.184 15.816 26.756 13.08 26.756 8.724C26.756 4.404 22.184 1.668 15.452 1.668C8.756 1.668 4.184 4.404 4.184 8.724C4.184 13.08 8.756 15.816 15.452 15.816ZM30.14 18.876H0.908V21.324H13.976V32.7H16.928V21.324H30.14V18.876ZM38.8492 14.88H50.7652V3.36H35.7892V5.772H47.7772V12.504H35.8972V24.888H38.5612C44.1052 24.888 49.0012 24.672 54.8332 23.7L54.5452 21.288C48.8932 22.188 44.1412 22.44 38.8492 22.44V14.88ZM57.5692 0.335998V32.7H60.5212V0.335998H57.5692ZM9.656 59C7.604 59 6.308 56.804 6.308 52.016C6.308 47.3 7.604 45.104 9.656 45.104C11.708 45.104 13.004 47.3 13.004 52.016C13.004 56.804 11.708 59 9.656 59ZM23.12 37.544V49.388H18.404C17.612 43.412 14.156 39.812 9.656 39.812C4.544 39.812 0.764 44.492 0.764 52.016C0.764 59.612 4.544 64.292 9.656 64.292C14.336 64.292 17.864 60.404 18.476 54.032H23.12V71.528H28.952V37.544H23.12ZM41.1172 45.14H51.8452V40.496H35.3212V63.644H38.3452C45.8332 63.644 50.0452 63.536 54.3292 62.708L53.8252 57.92C50.1532 58.64 46.7332 58.82 41.1172 58.856V45.14ZM55.8052 37.616V71.564H61.6372V37.616H55.8052ZM67.8984 41V45.644H78.1944C77.2584 52.808 73.3344 57.596 65.8824 61.484L69.1224 65.876C80.5344 60.116 84.0984 51.44 84.0984 41H67.8984ZM97.5984 50.072H93.2424V37.58H87.4104V71.348H93.2424V54.824H97.5984V50.072ZM104.688 58.28H110.268C109.8 53.528 115.956 52.052 115.956 47.048C115.956 42.044 112.5 39.92 108 39.92C104.76 39.92 102.024 41.432 100.044 43.7L103.572 46.94C104.688 45.824 105.732 45.068 107.208 45.068C108.684 45.068 109.8 45.86 109.8 47.48C109.8 50.432 103.824 52.736 104.688 58.28ZM107.46 68.504C109.656 68.504 111.276 66.74 111.276 64.508C111.276 62.276 109.656 60.548 107.46 60.548C105.228 60.548 103.644 62.276 103.644 64.508C103.644 66.74 105.228 68.504 107.46 68.504Z" fill="#94BBFF"/>
</svg>
